<?xml version="1.0" encoding="UTF-8" standalone="no"?>
<!DOCTYPE svg PUBLIC "-//W3C//DTD SVG 1.1//EN"
 "http://www.w3.org/Graphics/SVG/1.1/DTD/svg11.dtd">
<!-- Generated by graphviz version 2.40.1 (20161225.0304)
 -->
<!-- Title: G Pages: 1 -->
<svg width="837pt" height="357pt"
 viewBox="0.00 0.00 837.00 356.74" xmlns="http://www.w3.org/2000/svg" xmlns:xlink="http://www.w3.org/1999/xlink">
<g id="graph0" class="graph" transform="scale(1 1) rotate(0) translate(4 352.7351)">
<title>G</title>
<polygon fill="#ffffff" stroke="transparent" points="-4,4 -4,-352.7351 833,-352.7351 833,4 -4,4"/>
<g id="clust1" class="cluster">
<title>cluster_G</title>
<path fill="#808080" fill-opacity="0.094118" stroke="#000000" d="M20,-8C20,-8 809,-8 809,-8 815,-8 821,-14 821,-20 821,-20 821,-328.7351 821,-328.7351 821,-334.7351 815,-340.7351 809,-340.7351 809,-340.7351 20,-340.7351 20,-340.7351 14,-340.7351 8,-334.7351 8,-328.7351 8,-328.7351 8,-20 8,-20 8,-14 14,-8 20,-8"/>
</g>
<g id="clust2" class="cluster">
<title>cluster_dqn</title>
<path fill="#808080" fill-opacity="0.094118" stroke="#000000" d="M320,-112.9117C320,-112.9117 515,-112.9117 515,-112.9117 521,-112.9117 527,-118.9117 527,-124.9117 527,-124.9117 527,-276.7351 527,-276.7351 527,-282.7351 521,-288.7351 515,-288.7351 515,-288.7351 320,-288.7351 320,-288.7351 314,-288.7351 308,-282.7351 308,-276.7351 308,-276.7351 308,-124.9117 308,-124.9117 308,-118.9117 314,-112.9117 320,-112.9117"/>
<text text-anchor="middle" x="417.5" y="-273.5351" font-family="Times,serif" font-size="14.00" fill="#000000">dqn</text>
</g>
<g id="clust3" class="cluster">
<title>cluster_dqn__QLearner</title>
<path fill="#808080" fill-opacity="0.094118" stroke="#000000" d="M28,-16C28,-16 801,-16 801,-16 807,-16 813,-22 813,-28 813,-28 813,-92.9117 813,-92.9117 813,-98.9117 807,-104.9117 801,-104.9117 801,-104.9117 28,-104.9117 28,-104.9117 22,-104.9117 16,-98.9117 16,-92.9117 16,-92.9117 16,-28 16,-28 16,-22 22,-16 28,-16"/>
<text text-anchor="middle" x="414.5" y="-89.7117" font-family="Times,serif" font-size="14.00" fill="#000000">dqn.QLearner</text>
</g>
<!-- dqn -->
<g id="node1" class="node">
<title>dqn</title>
<ellipse fill="#ffffff" fill-opacity="0.698039" stroke="#000000" cx="415" cy="-314.7351" rx="27" ry="18"/>
<text text-anchor="middle" x="415" y="-310.5351" font-family="Times,serif" font-size="14.00" fill="#000000">dqn</text>
</g>
<!-- dqn__QLearner -->
<g id="node2" class="node">
<title>dqn__QLearner</title>
<ellipse fill="#fecccc" fill-opacity="0.698039" stroke="#000000" cx="374" cy="-146.3675" rx="57.5617" ry="25.4118"/>
<text text-anchor="middle" x="374" y="-149.1675" font-family="Times,serif" font-size="14.00" fill="#000000">QLearner</text>
<text text-anchor="middle" x="374" y="-135.1675" font-family="Times,serif" font-size="14.00" fill="#000000">(dqn.py:16)</text>
</g>
<!-- dqn&#45;&gt;dqn__QLearner -->
<g id="edge2" class="edge">
<title>dqn&#45;&gt;dqn__QLearner</title>
<path fill="none" stroke="#838b8b" stroke-dasharray="5,2" d="M395.1303,-302.1407C390.7372,-298.3782 386.6163,-293.8665 384,-288.7351 367.0359,-255.4635 366.5815,-212.0174 369.0764,-181.9122"/>
<polygon fill="#838b8b" stroke="#838b8b" points="372.5696,-182.1517 370.0597,-171.8585 365.6028,-181.4703 372.5696,-182.1517"/>
</g>
<!-- dqn__learn -->
<g id="node3" class="node">
<title>dqn__learn</title>
<ellipse fill="#fecccc" fill-opacity="0.698039" stroke="#000000" cx="456" cy="-233.2792" rx="62.9612" ry="25.4118"/>
<text text-anchor="middle" x="456" y="-236.0792" font-family="Times,serif" font-size="14.00" fill="#000000">learn</text>
<text text-anchor="middle" x="456" y="-222.0792" font-family="Times,serif" font-size="14.00" fill="#000000">(dqn.py:308)</text>
</g>
<!-- dqn&#45;&gt;dqn__learn -->
<g id="edge1" class="edge">
<title>dqn&#45;&gt;dqn__learn</title>
<path fill="none" stroke="#838b8b" stroke-dasharray="5,2" d="M423.695,-297.4604C428.0863,-288.7361 433.5738,-277.8339 438.773,-267.5046"/>
<polygon fill="#838b8b" stroke="#838b8b" points="442.0573,-268.7643 443.427,-258.2584 435.8046,-265.6171 442.0573,-268.7643"/>
</g>
<!-- dqn__QLearner____init__ -->
<g id="node4" class="node">
<title>dqn__QLearner____init__</title>
<ellipse fill="#ff9999" fill-opacity="0.698039" stroke="#000000" cx="603" cy="-49.4558" rx="57.5617" ry="25.4118"/>
<text text-anchor="middle" x="603" y="-52.2558" font-family="Times,serif" font-size="14.00" fill="#000000">__init__</text>
<text text-anchor="middle" x="603" y="-38.2558" font-family="Times,serif" font-size="14.00" fill="#000000">(dqn.py:18)</text>
</g>
<!-- dqn__QLearner&#45;&gt;dqn__QLearner____init__ -->
<g id="edge6" class="edge">
<title>dqn__QLearner&#45;&gt;dqn__QLearner____init__</title>
<path fill="none" stroke="#838b8b" stroke-dasharray="5,2" d="M429.0348,-138.4999C461.4353,-132.3789 502.4975,-121.9705 536,-104.9117 548.9931,-98.2959 561.7169,-88.7808 572.5259,-79.4951"/>
<polygon fill="#838b8b" stroke="#838b8b" points="574.8871,-82.0791 580.0346,-72.8188 570.2358,-76.8479 574.8871,-82.0791"/>
</g>
<!-- dqn__QLearner__log_progress -->
<g id="node5" class="node">
<title>dqn__QLearner__log_progress</title>
<ellipse fill="#ff9999" fill-opacity="0.698039" stroke="#000000" cx="742" cy="-49.4558" rx="62.9612" ry="25.4118"/>
<text text-anchor="middle" x="742" y="-52.2558" font-family="Times,serif" font-size="14.00" fill="#000000">log_progress</text>
<text text-anchor="middle" x="742" y="-38.2558" font-family="Times,serif" font-size="14.00" fill="#000000">(dqn.py:282)</text>
</g>
<!-- dqn__QLearner&#45;&gt;dqn__QLearner__log_progress -->
<g id="edge7" class="edge">
<title>dqn__QLearner&#45;&gt;dqn__QLearner__log_progress</title>
<path fill="none" stroke="#838b8b" stroke-dasharray="5,2" d="M430.9459,-141.8797C504.4863,-135.4866 628.0204,-122.5483 670,-104.9117 684.4191,-98.8539 698.4667,-89.1729 710.2687,-79.5828"/>
<polygon fill="#838b8b" stroke="#838b8b" points="712.6767,-82.1304 718.0576,-73.0036 708.1596,-76.7828 712.6767,-82.1304"/>
</g>
<!-- dqn__QLearner__step_env -->
<g id="node6" class="node">
<title>dqn__QLearner__step_env</title>
<ellipse fill="#ff9999" fill-opacity="0.698039" stroke="#000000" cx="87" cy="-49.4558" rx="62.9612" ry="25.4118"/>
<text text-anchor="middle" x="87" y="-52.2558" font-family="Times,serif" font-size="14.00" fill="#000000">step_env</text>
<text text-anchor="middle" x="87" y="-38.2558" font-family="Times,serif" font-size="14.00" fill="#000000">(dqn.py:198)</text>
</g>
<!-- dqn__QLearner&#45;&gt;dqn__QLearner__step_env -->
<g id="edge3" class="edge">
<title>dqn__QLearner&#45;&gt;dqn__QLearner__step_env</title>
<path fill="none" stroke="#838b8b" stroke-dasharray="5,2" d="M316.7459,-142.7533C271.876,-138.2087 208.7585,-127.967 158,-104.9117 144.2489,-98.6657 130.7699,-89.2415 119.3141,-79.9254"/>
<polygon fill="#838b8b" stroke="#838b8b" points="121.2545,-76.9832 111.3551,-73.208 116.7396,-82.3326 121.2545,-76.9832"/>
</g>
<!-- dqn__QLearner__stopping_criterion_met -->
<g id="node7" class="node">
<title>dqn__QLearner__stopping_criterion_met</title>
<ellipse fill="#ff9999" fill-opacity="0.698039" stroke="#000000" cx="271" cy="-49.4558" rx="103.8829" ry="25.4118"/>
<text text-anchor="middle" x="271" y="-52.2558" font-family="Times,serif" font-size="14.00" fill="#000000">stopping_criterion_met</text>
<text text-anchor="middle" x="271" y="-38.2558" font-family="Times,serif" font-size="14.00" fill="#000000">(dqn.py:195)</text>
</g>
<!-- dqn__QLearner&#45;&gt;dqn__QLearner__stopping_criterion_met -->
<g id="edge4" class="edge">
<title>dqn__QLearner&#45;&gt;dqn__QLearner__stopping_criterion_met</title>
<path fill="none" stroke="#838b8b" stroke-dasharray="5,2" d="M349.3289,-123.1548C335.9492,-110.5659 319.2176,-94.8233 304.6572,-81.1236"/>
<polygon fill="#838b8b" stroke="#838b8b" points="306.9517,-78.4768 297.2703,-74.1733 302.1549,-83.5749 306.9517,-78.4768"/>
</g>
<!-- dqn__QLearner__update_model -->
<g id="node8" class="node">
<title>dqn__QLearner__update_model</title>
<ellipse fill="#ff9999" fill-opacity="0.698039" stroke="#000000" cx="460" cy="-49.4558" rx="67.2896" ry="25.4118"/>
<text text-anchor="middle" x="460" y="-52.2558" font-family="Times,serif" font-size="14.00" fill="#000000">update_model</text>
<text text-anchor="middle" x="460" y="-38.2558" font-family="Times,serif" font-size="14.00" fill="#000000">(dqn.py:233)</text>
</g>
<!-- dqn__QLearner&#45;&gt;dqn__QLearner__update_model -->
<g id="edge5" class="edge">
<title>dqn__QLearner&#45;&gt;dqn__QLearner__update_model</title>
<path fill="none" stroke="#838b8b" stroke-dasharray="5,2" d="M395.2584,-122.4118C406.2355,-110.042 419.7778,-94.7814 431.6346,-81.4203"/>
<polygon fill="#838b8b" stroke="#838b8b" points="434.3692,-83.6118 438.3888,-73.8091 429.1334,-78.9656 434.3692,-83.6118"/>
</g>
<!-- dqn__learn&#45;&gt;dqn__QLearner -->
<g id="edge11" class="edge">
<title>dqn__learn&#45;&gt;dqn__QLearner</title>
<path fill="none" stroke="#000000" d="M433.1584,-209.0695C423.9302,-199.2885 413.1639,-187.8773 403.3645,-177.4909"/>
<polygon fill="#000000" stroke="#000000" points="405.844,-175.0188 396.4357,-170.1471 400.7525,-179.8226 405.844,-175.0188"/>
</g>
<!-- dqn__learn&#45;&gt;dqn__QLearner____init__ -->
<g id="edge12" class="edge">
<title>dqn__learn&#45;&gt;dqn__QLearner____init__</title>
<path fill="none" stroke="#000000" d="M475.5205,-208.8689C501.732,-176.0914 548.3559,-117.7883 577.3688,-81.5076"/>
<polygon fill="#000000" stroke="#000000" points="580.1209,-83.6702 583.6329,-73.6743 574.654,-79.2984 580.1209,-83.6702"/>
</g>
<!-- dqn__learn&#45;&gt;dqn__QLearner__log_progress -->
<g id="edge13" class="edge">
<title>dqn__learn&#45;&gt;dqn__QLearner__log_progress</title>
<path fill="none" stroke="#000000" d="M493.1569,-212.735C536.4908,-188.3797 609.8588,-145.9077 670,-104.9117 681.9595,-96.7593 694.5932,-87.3287 705.8821,-78.5828"/>
<polygon fill="#000000" stroke="#000000" points="708.1141,-81.2805 713.8357,-72.3634 703.8022,-75.7662 708.1141,-81.2805"/>
</g>
<!-- dqn__learn&#45;&gt;dqn__QLearner__step_env -->
<g id="edge8" class="edge">
<title>dqn__learn&#45;&gt;dqn__QLearner__step_env</title>
<path fill="none" stroke="#000000" d="M456.5433,-207.6616C456.6046,-176.1174 454.521,-125.1967 441,-112.9117 429.3589,-102.3348 172.7981,-110.241 158,-104.9117 143.1741,-99.5723 129.0209,-89.8464 117.3073,-80.0135"/>
<polygon fill="#000000" stroke="#000000" points="119.4294,-77.2187 109.6093,-73.2416 114.8059,-82.4745 119.4294,-77.2187"/>
</g>
<!-- dqn__learn&#45;&gt;dqn__QLearner__stopping_criterion_met -->
<g id="edge9" class="edge">
<title>dqn__learn&#45;&gt;dqn__QLearner__stopping_criterion_met</title>
<path fill="none" stroke="#000000" d="M464.8557,-207.7102C472.4279,-180.6649 478.8563,-138.4482 456,-112.9117 445.2636,-100.9163 399.4561,-109.4138 384,-104.9117 361.9025,-98.475 338.8612,-87.9483 319.3929,-77.7863"/>
<polygon fill="#000000" stroke="#000000" points="320.9002,-74.6236 310.43,-73.0034 317.6046,-80.7993 320.9002,-74.6236"/>
</g>
<!-- dqn__learn&#45;&gt;dqn__QLearner__update_model -->
<g id="edge10" class="edge">
<title>dqn__learn&#45;&gt;dqn__QLearner__update_model</title>
<path fill="none" stroke="#000000" d="M466.2087,-208.0068C470.1019,-197.0741 474.0664,-184.0132 476,-171.8234 480.102,-145.9637 479.2253,-138.8952 476,-112.9117 474.8509,-103.6548 472.7933,-93.8087 470.5279,-84.7035"/>
<polygon fill="#000000" stroke="#000000" points="473.8531,-83.5865 467.9194,-74.8091 467.0844,-85.371 473.8531,-83.5865"/>
</g>
</g>
</svg>
