<?xml version="1.0" encoding="UTF-8" standalone="no"?>
<!DOCTYPE svg PUBLIC "-//W3C//DTD SVG 1.1//EN"
 "http://www.w3.org/Graphics/SVG/1.1/DTD/svg11.dtd">
<!-- Generated by graphviz version 2.40.1 (20161225.0304)
 -->
<!-- Title: G Pages: 1 -->
<svg width="2775pt" height="444pt"
 viewBox="0.00 0.00 2775.00 443.65" xmlns="http://www.w3.org/2000/svg" xmlns:xlink="http://www.w3.org/1999/xlink">
<g id="graph0" class="graph" transform="scale(1 1) rotate(0) translate(4 439.6468)">
<title>G</title>
<polygon fill="#ffffff" stroke="transparent" points="-4,4 -4,-439.6468 2771,-439.6468 2771,4 -4,4"/>
<g id="clust1" class="cluster">
<title>cluster_G</title>
<path fill="#808080" fill-opacity="0.094118" stroke="#000000" d="M20,-8C20,-8 2747,-8 2747,-8 2753,-8 2759,-14 2759,-20 2759,-20 2759,-415.6468 2759,-415.6468 2759,-421.6468 2753,-427.6468 2747,-427.6468 2747,-427.6468 20,-427.6468 20,-427.6468 14,-427.6468 8,-421.6468 8,-415.6468 8,-415.6468 8,-20 8,-20 8,-14 14,-8 20,-8"/>
</g>
<g id="clust2" class="cluster">
<title>cluster_dqn_utils</title>
<path fill="#808080" fill-opacity="0.094118" stroke="#000000" d="M28,-286.7351C28,-286.7351 2492,-286.7351 2492,-286.7351 2498,-286.7351 2504,-292.7351 2504,-298.7351 2504,-298.7351 2504,-363.6468 2504,-363.6468 2504,-369.6468 2498,-375.6468 2492,-375.6468 2492,-375.6468 28,-375.6468 28,-375.6468 22,-375.6468 16,-369.6468 16,-363.6468 16,-363.6468 16,-298.7351 16,-298.7351 16,-292.7351 22,-286.7351 28,-286.7351"/>
<text text-anchor="middle" x="1260" y="-360.4468" font-family="Times,serif" font-size="14.00" fill="#000000">dqn_utils</text>
</g>
<g id="clust3" class="cluster">
<title>cluster_dqn_utils__ConstantSchedule</title>
<path fill="#808080" fill-opacity="0.094118" stroke="#000000" d="M30,-189.8234C30,-189.8234 360,-189.8234 360,-189.8234 366,-189.8234 372,-195.8234 372,-201.8234 372,-201.8234 372,-266.7351 372,-266.7351 372,-272.7351 366,-278.7351 360,-278.7351 360,-278.7351 30,-278.7351 30,-278.7351 24,-278.7351 18,-272.7351 18,-266.7351 18,-266.7351 18,-201.8234 18,-201.8234 18,-195.8234 24,-189.8234 30,-189.8234"/>
<text text-anchor="middle" x="195" y="-263.5351" font-family="Times,serif" font-size="14.00" fill="#000000">dqn_utils.ConstantSchedule</text>
</g>
<g id="clust4" class="cluster">
<title>cluster_dqn_utils__LinearSchedule</title>
<path fill="#808080" fill-opacity="0.094118" stroke="#000000" d="M397,-189.8234C397,-189.8234 737,-189.8234 737,-189.8234 743,-189.8234 749,-195.8234 749,-201.8234 749,-201.8234 749,-266.7351 749,-266.7351 749,-272.7351 743,-278.7351 737,-278.7351 737,-278.7351 397,-278.7351 397,-278.7351 391,-278.7351 385,-272.7351 385,-266.7351 385,-266.7351 385,-201.8234 385,-201.8234 385,-195.8234 391,-189.8234 397,-189.8234"/>
<text text-anchor="middle" x="567" y="-263.5351" font-family="Times,serif" font-size="14.00" fill="#000000">dqn_utils.LinearSchedule</text>
</g>
<g id="clust5" class="cluster">
<title>cluster_dqn_utils__PiecewiseSchedule</title>
<path fill="#808080" fill-opacity="0.094118" stroke="#000000" d="M1402,-189.8234C1402,-189.8234 1732,-189.8234 1732,-189.8234 1738,-189.8234 1744,-195.8234 1744,-201.8234 1744,-201.8234 1744,-266.7351 1744,-266.7351 1744,-272.7351 1738,-278.7351 1732,-278.7351 1732,-278.7351 1402,-278.7351 1402,-278.7351 1396,-278.7351 1390,-272.7351 1390,-266.7351 1390,-266.7351 1390,-201.8234 1390,-201.8234 1390,-195.8234 1396,-189.8234 1402,-189.8234"/>
<text text-anchor="middle" x="1567" y="-263.5351" font-family="Times,serif" font-size="14.00" fill="#000000">dqn_utils.PiecewiseSchedule</text>
</g>
<g id="clust6" class="cluster">
<title>cluster_dqn_utils__ReplayBuffer</title>
<path fill="#808080" fill-opacity="0.094118" stroke="#000000" d="M1778,-16C1778,-16 2501,-16 2501,-16 2507,-16 2513,-22 2513,-28 2513,-28 2513,-266.7351 2513,-266.7351 2513,-272.7351 2507,-278.7351 2501,-278.7351 2501,-278.7351 1778,-278.7351 1778,-278.7351 1772,-278.7351 1766,-272.7351 1766,-266.7351 1766,-266.7351 1766,-28 1766,-28 1766,-22 1772,-16 1778,-16"/>
<text text-anchor="middle" x="2139.5" y="-263.5351" font-family="Times,serif" font-size="14.00" fill="#000000">dqn_utils.ReplayBuffer</text>
</g>
<g id="clust7" class="cluster">
<title>cluster_dqn_utils__Schedule</title>
<path fill="#808080" fill-opacity="0.094118" stroke="#000000" d="M2587,-189.8234C2587,-189.8234 2739,-189.8234 2739,-189.8234 2745,-189.8234 2751,-195.8234 2751,-201.8234 2751,-201.8234 2751,-266.7351 2751,-266.7351 2751,-272.7351 2745,-278.7351 2739,-278.7351 2739,-278.7351 2587,-278.7351 2587,-278.7351 2581,-278.7351 2575,-272.7351 2575,-266.7351 2575,-266.7351 2575,-201.8234 2575,-201.8234 2575,-195.8234 2581,-189.8234 2587,-189.8234"/>
<text text-anchor="middle" x="2663" y="-263.5351" font-family="Times,serif" font-size="14.00" fill="#000000">dqn_utils.Schedule</text>
</g>
<!-- dqn_utils -->
<g id="node1" class="node">
<title>dqn_utils</title>
<ellipse fill="#ffffff" fill-opacity="0.698039" stroke="#000000" cx="1296" cy="-401.6468" rx="43.056" ry="18"/>
<text text-anchor="middle" x="1296" y="-397.4468" font-family="Times,serif" font-size="14.00" fill="#000000">dqn_utils</text>
</g>
<!-- dqn_utils__ConstantSchedule -->
<g id="node2" class="node">
<title>dqn_utils__ConstantSchedule</title>
<ellipse fill="#fecccc" fill-opacity="0.698039" stroke="#000000" cx="107" cy="-320.1909" rx="82.6002" ry="25.4118"/>
<text text-anchor="middle" x="107" y="-322.9909" font-family="Times,serif" font-size="14.00" fill="#000000">ConstantSchedule</text>
<text text-anchor="middle" x="107" y="-308.9909" font-family="Times,serif" font-size="14.00" fill="#000000">(dqn_utils.py:32)</text>
</g>
<!-- dqn_utils&#45;&gt;dqn_utils__ConstantSchedule -->
<g id="edge1" class="edge">
<title>dqn_utils&#45;&gt;dqn_utils__ConstantSchedule</title>
<path fill="none" stroke="#838b8b" stroke-dasharray="5,2" d="M1252.9206,-401.2441C1056.1736,-399.3264 250.3613,-390.5873 199,-375.6468 180.2645,-370.1968 161.4764,-359.9388 145.8081,-349.7131"/>
<polygon fill="#838b8b" stroke="#838b8b" points="147.691,-346.7613 137.4446,-344.0662 143.7739,-352.5627 147.691,-346.7613"/>
</g>
<!-- dqn_utils__LinearSchedule -->
<g id="node3" class="node">
<title>dqn_utils__LinearSchedule</title>
<ellipse fill="#fecccc" fill-opacity="0.698039" stroke="#000000" cx="482" cy="-320.1909" rx="79.5678" ry="25.4118"/>
<text text-anchor="middle" x="482" y="-322.9909" font-family="Times,serif" font-size="14.00" fill="#000000">LinearSchedule</text>
<text text-anchor="middle" x="482" y="-308.9909" font-family="Times,serif" font-size="14.00" fill="#000000">(dqn_utils.py:85)</text>
</g>
<!-- dqn_utils&#45;&gt;dqn_utils__LinearSchedule -->
<g id="edge5" class="edge">
<title>dqn_utils&#45;&gt;dqn_utils__LinearSchedule</title>
<path fill="none" stroke="#838b8b" stroke-dasharray="5,2" d="M1252.9414,-401.3946C1106.9184,-400.3615 636.0063,-395.5093 571,-375.6468 552.9526,-370.1324 534.9287,-359.9917 519.8681,-349.8751"/>
<polygon fill="#838b8b" stroke="#838b8b" points="521.5724,-346.797 511.3653,-343.9566 517.5733,-352.5422 521.5724,-346.797"/>
</g>
<!-- dqn_utils__PiecewiseSchedule -->
<g id="node4" class="node">
<title>dqn_utils__PiecewiseSchedule</title>
<ellipse fill="#fecccc" fill-opacity="0.698039" stroke="#000000" cx="1665" cy="-320.1909" rx="87.3685" ry="25.4118"/>
<text text-anchor="middle" x="1665" y="-322.9909" font-family="Times,serif" font-size="14.00" fill="#000000">PiecewiseSchedule</text>
<text text-anchor="middle" x="1665" y="-308.9909" font-family="Times,serif" font-size="14.00" fill="#000000">(dqn_utils.py:49)</text>
</g>
<!-- dqn_utils&#45;&gt;dqn_utils__PiecewiseSchedule -->
<g id="edge8" class="edge">
<title>dqn_utils&#45;&gt;dqn_utils__PiecewiseSchedule</title>
<path fill="none" stroke="#838b8b" stroke-dasharray="5,2" d="M1339.0048,-399.7854C1404.8328,-396.5596 1527.335,-388.9653 1569,-375.6468 1587.8723,-369.6141 1607.0892,-359.4665 1623.3222,-349.4887"/>
<polygon fill="#838b8b" stroke="#838b8b" points="1625.4333,-352.2947 1632.0124,-343.9901 1621.6904,-346.3794 1625.4333,-352.2947"/>
</g>
<!-- dqn_utils__ReplayBuffer -->
<g id="node5" class="node">
<title>dqn_utils__ReplayBuffer</title>
<ellipse fill="#fecccc" fill-opacity="0.698039" stroke="#000000" cx="2233" cy="-320.1909" rx="84.9673" ry="25.4118"/>
<text text-anchor="middle" x="2233" y="-322.9909" font-family="Times,serif" font-size="14.00" fill="#000000">ReplayBuffer</text>
<text text-anchor="middle" x="2233" y="-308.9909" font-family="Times,serif" font-size="14.00" fill="#000000">(dqn_utils.py:174)</text>
</g>
<!-- dqn_utils&#45;&gt;dqn_utils__ReplayBuffer -->
<g id="edge2" class="edge">
<title>dqn_utils&#45;&gt;dqn_utils__ReplayBuffer</title>
<path fill="none" stroke="#838b8b" stroke-dasharray="5,2" d="M1339.0288,-400.9135C1505.5452,-397.999 2100.323,-386.8488 2139,-375.6468 2158.0415,-370.1317 2177.2195,-359.8619 2193.242,-349.6449"/>
<polygon fill="#838b8b" stroke="#838b8b" points="2195.375,-352.4309 2201.7978,-344.0047 2191.5223,-346.5865 2195.375,-352.4309"/>
</g>
<!-- dqn_utils__Schedule -->
<g id="node6" class="node">
<title>dqn_utils__Schedule</title>
<ellipse fill="#fecccc" fill-opacity="0.698039" stroke="#000000" cx="2416" cy="-320.1909" rx="79.5678" ry="25.4118"/>
<text text-anchor="middle" x="2416" y="-322.9909" font-family="Times,serif" font-size="14.00" fill="#000000">Schedule</text>
<text text-anchor="middle" x="2416" y="-308.9909" font-family="Times,serif" font-size="14.00" fill="#000000">(dqn_utils.py:27)</text>
</g>
<!-- dqn_utils&#45;&gt;dqn_utils__Schedule -->
<g id="edge9" class="edge">
<title>dqn_utils&#45;&gt;dqn_utils__Schedule</title>
<path fill="none" stroke="#838b8b" stroke-dasharray="5,2" d="M1339.3143,-401.1905C1528.9945,-399.111 2279.0842,-390.0092 2327,-375.6468 2345.0765,-370.2284 2363.1059,-360.106 2378.1628,-349.9772"/>
<polygon fill="#838b8b" stroke="#838b8b" points="2380.463,-352.6401 2386.6624,-344.0483 2376.4582,-346.8988 2380.463,-352.6401"/>
</g>
<!-- dqn_utils__compute_exponential_averages -->
<g id="node7" class="node">
<title>dqn_utils__compute_exponential_averages</title>
<ellipse fill="#fecccc" fill-opacity="0.698039" stroke="#000000" cx="1424" cy="-320.1909" rx="136.2127" ry="25.4118"/>
<text text-anchor="middle" x="1424" y="-322.9909" font-family="Times,serif" font-size="14.00" fill="#000000">compute_exponential_averages</text>
<text text-anchor="middle" x="1424" y="-308.9909" font-family="Times,serif" font-size="14.00" fill="#000000">(dqn_utils.py:109)</text>
</g>
<!-- dqn_utils&#45;&gt;dqn_utils__compute_exponential_averages -->
<g id="edge3" class="edge">
<title>dqn_utils&#45;&gt;dqn_utils__compute_exponential_averages</title>
<path fill="none" stroke="#838b8b" stroke-dasharray="5,2" d="M1319.7758,-386.5164C1335.8353,-376.2966 1357.5774,-362.4605 1377.0486,-350.0695"/>
<polygon fill="#838b8b" stroke="#838b8b" points="1378.9603,-353.0016 1385.5178,-344.68 1375.2021,-347.096 1378.9603,-353.0016"/>
</g>
<!-- dqn_utils__get_wrapper_by_name -->
<g id="node8" class="node">
<title>dqn_utils__get_wrapper_by_name</title>
<ellipse fill="#fecccc" fill-opacity="0.698039" stroke="#000000" cx="1168" cy="-320.1909" rx="102.0473" ry="25.4118"/>
<text text-anchor="middle" x="1168" y="-322.9909" font-family="Times,serif" font-size="14.00" fill="#000000">get_wrapper_by_name</text>
<text text-anchor="middle" x="1168" y="-308.9909" font-family="Times,serif" font-size="14.00" fill="#000000">(dqn_utils.py:164)</text>
</g>
<!-- dqn_utils&#45;&gt;dqn_utils__get_wrapper_by_name -->
<g id="edge12" class="edge">
<title>dqn_utils&#45;&gt;dqn_utils__get_wrapper_by_name</title>
<path fill="none" stroke="#838b8b" stroke-dasharray="5,2" d="M1272.2242,-386.5164C1255.9757,-376.1764 1233.9102,-362.1344 1214.2651,-349.6328"/>
<polygon fill="#838b8b" stroke="#838b8b" points="1216.0451,-346.617 1205.7295,-344.2009 1212.2869,-352.5226 1216.0451,-346.617"/>
</g>
<!-- dqn_utils__huber_loss -->
<g id="node9" class="node">
<title>dqn_utils__huber_loss</title>
<ellipse fill="#fecccc" fill-opacity="0.698039" stroke="#000000" cx="973" cy="-320.1909" rx="74.6681" ry="25.4118"/>
<text text-anchor="middle" x="973" y="-322.9909" font-family="Times,serif" font-size="14.00" fill="#000000">huber_loss</text>
<text text-anchor="middle" x="973" y="-308.9909" font-family="Times,serif" font-size="14.00" fill="#000000">(dqn_utils.py:8)</text>
</g>
<!-- dqn_utils&#45;&gt;dqn_utils__huber_loss -->
<g id="edge6" class="edge">
<title>dqn_utils&#45;&gt;dqn_utils__huber_loss</title>
<path fill="none" stroke="#838b8b" stroke-dasharray="5,2" d="M1253.1857,-399.4137C1194.4151,-395.935 1092.0443,-388.2776 1057,-375.6468 1040.3909,-369.6604 1023.8084,-359.7618 1009.8183,-349.9713"/>
<polygon fill="#838b8b" stroke="#838b8b" points="1011.6184,-346.9536 1001.4655,-343.9252 1007.5139,-352.624 1011.6184,-346.9536"/>
</g>
<!-- dqn_utils__initialize_interdependent_variables -->
<g id="node10" class="node">
<title>dqn_utils__initialize_interdependent_variables</title>
<ellipse fill="#fecccc" fill-opacity="0.698039" stroke="#000000" cx="730" cy="-320.1909" rx="150.2994" ry="25.4118"/>
<text text-anchor="middle" x="730" y="-322.9909" font-family="Times,serif" font-size="14.00" fill="#000000">initialize_interdependent_variables</text>
<text text-anchor="middle" x="730" y="-308.9909" font-family="Times,serif" font-size="14.00" fill="#000000">(dqn_utils.py:141)</text>
</g>
<!-- dqn_utils&#45;&gt;dqn_utils__initialize_interdependent_variables -->
<g id="edge10" class="edge">
<title>dqn_utils&#45;&gt;dqn_utils__initialize_interdependent_variables</title>
<path fill="none" stroke="#838b8b" stroke-dasharray="5,2" d="M1253.0309,-400.3779C1163.0809,-397.4806 957.616,-389.5338 889,-375.6468 857.4638,-369.2642 823.6558,-358.1198 795.3581,-347.4876"/>
<polygon fill="#838b8b" stroke="#838b8b" points="796.5747,-344.2057 785.984,-343.9091 794.0782,-350.7454 796.5747,-344.2057"/>
</g>
<!-- dqn_utils__linear_interpolation -->
<g id="node11" class="node">
<title>dqn_utils__linear_interpolation</title>
<ellipse fill="#fecccc" fill-opacity="0.698039" stroke="#000000" cx="1860" cy="-320.1909" rx="89.267" ry="25.4118"/>
<text text-anchor="middle" x="1860" y="-322.9909" font-family="Times,serif" font-size="14.00" fill="#000000">linear_interpolation</text>
<text text-anchor="middle" x="1860" y="-308.9909" font-family="Times,serif" font-size="14.00" fill="#000000">(dqn_utils.py:46)</text>
</g>
<!-- dqn_utils&#45;&gt;dqn_utils__linear_interpolation -->
<g id="edge11" class="edge">
<title>dqn_utils&#45;&gt;dqn_utils__linear_interpolation</title>
<path fill="none" stroke="#838b8b" stroke-dasharray="5,2" d="M1339.2745,-400.341C1446.9657,-396.9333 1721.2127,-387.2272 1761,-375.6468 1780.8124,-369.8802 1800.9853,-359.5489 1817.907,-349.3536"/>
<polygon fill="#838b8b" stroke="#838b8b" points="1819.7881,-352.3054 1826.4404,-344.0593 1816.0978,-346.3572 1819.7881,-352.3054"/>
</g>
<!-- dqn_utils__minimize_and_clip -->
<g id="node12" class="node">
<title>dqn_utils__minimize_and_clip</title>
<ellipse fill="#fecccc" fill-opacity="0.698039" stroke="#000000" cx="296" cy="-320.1909" rx="87.9805" ry="25.4118"/>
<text text-anchor="middle" x="296" y="-322.9909" font-family="Times,serif" font-size="14.00" fill="#000000">minimize_and_clip</text>
<text text-anchor="middle" x="296" y="-308.9909" font-family="Times,serif" font-size="14.00" fill="#000000">(dqn_utils.py:130)</text>
</g>
<!-- dqn_utils&#45;&gt;dqn_utils__minimize_and_clip -->
<g id="edge4" class="edge">
<title>dqn_utils&#45;&gt;dqn_utils__minimize_and_clip</title>
<path fill="none" stroke="#838b8b" stroke-dasharray="5,2" d="M1252.9094,-400.9885C1078.8243,-398.2543 434.756,-387.3863 393,-375.6468 373.4622,-370.1538 353.6924,-359.8879 337.1437,-349.668"/>
<polygon fill="#838b8b" stroke="#838b8b" points="338.6158,-346.4554 328.3033,-344.0256 334.8497,-352.356 338.6158,-346.4554"/>
</g>
<!-- dqn_utils__sample_n_unique -->
<g id="node13" class="node">
<title>dqn_utils__sample_n_unique</title>
<ellipse fill="#fecccc" fill-opacity="0.698039" stroke="#000000" cx="2049" cy="-320.1909" rx="81.2937" ry="25.4118"/>
<text text-anchor="middle" x="2049" y="-322.9909" font-family="Times,serif" font-size="14.00" fill="#000000">sample_n_unique</text>
<text text-anchor="middle" x="2049" y="-308.9909" font-family="Times,serif" font-size="14.00" fill="#000000">(dqn_utils.py:16)</text>
</g>
<!-- dqn_utils&#45;&gt;dqn_utils__sample_n_unique -->
<g id="edge7" class="edge">
<title>dqn_utils&#45;&gt;dqn_utils__sample_n_unique</title>
<path fill="none" stroke="#838b8b" stroke-dasharray="5,2" d="M1339.3347,-401.2079C1477.0588,-399.638 1899.1611,-393.4155 1958,-375.6468 1976.5302,-370.0508 1995.1138,-359.7662 2010.612,-349.56"/>
<polygon fill="#838b8b" stroke="#838b8b" points="2012.588,-352.4489 2018.8847,-343.9283 2008.6488,-346.6625 2012.588,-352.4489"/>
</g>
<!-- dqn_utils__ConstantSchedule____init__ -->
<g id="node14" class="node">
<title>dqn_utils__ConstantSchedule____init__</title>
<ellipse fill="#ff9999" fill-opacity="0.698039" stroke="#000000" cx="284" cy="-223.2792" rx="79.5678" ry="25.4118"/>
<text text-anchor="middle" x="284" y="-226.0792" font-family="Times,serif" font-size="14.00" fill="#000000">__init__</text>
<text text-anchor="middle" x="284" y="-212.0792" font-family="Times,serif" font-size="14.00" fill="#000000">(dqn_utils.py:33)</text>
</g>
<!-- dqn_utils__ConstantSchedule&#45;&gt;dqn_utils__ConstantSchedule____init__ -->
<g id="edge15" class="edge">
<title>dqn_utils__ConstantSchedule&#45;&gt;dqn_utils__ConstantSchedule____init__</title>
<path fill="none" stroke="#838b8b" stroke-dasharray="5,2" d="M154.0915,-299.2473C167.4718,-292.9637 181.9488,-285.8437 195,-278.7351 210.0935,-270.5141 226.1583,-260.8148 240.4254,-251.8455"/>
<polygon fill="#838b8b" stroke="#838b8b" points="242.4811,-254.6864 249.0516,-246.375 238.7322,-248.7749 242.4811,-254.6864"/>
</g>
<!-- dqn_utils__ConstantSchedule__value -->
<g id="node15" class="node">
<title>dqn_utils__ConstantSchedule__value</title>
<ellipse fill="#ff9999" fill-opacity="0.698039" stroke="#000000" cx="106" cy="-223.2792" rx="79.5678" ry="25.4118"/>
<text text-anchor="middle" x="106" y="-226.0792" font-family="Times,serif" font-size="14.00" fill="#000000">value</text>
<text text-anchor="middle" x="106" y="-212.0792" font-family="Times,serif" font-size="14.00" fill="#000000">(dqn_utils.py:42)</text>
</g>
<!-- dqn_utils__ConstantSchedule&#45;&gt;dqn_utils__ConstantSchedule__value -->
<g id="edge14" class="edge">
<title>dqn_utils__ConstantSchedule&#45;&gt;dqn_utils__ConstantSchedule__value</title>
<path fill="none" stroke="#838b8b" stroke-dasharray="5,2" d="M106.7373,-294.7285C106.6245,-283.798 106.4907,-270.8355 106.3683,-258.972"/>
<polygon fill="#838b8b" stroke="#838b8b" points="109.8675,-258.8714 106.2645,-248.908 102.8679,-258.9437 109.8675,-258.8714"/>
</g>
<!-- dqn_utils__LinearSchedule____init__ -->
<g id="node16" class="node">
<title>dqn_utils__LinearSchedule____init__</title>
<ellipse fill="#ff9999" fill-opacity="0.698039" stroke="#000000" cx="661" cy="-223.2792" rx="79.5678" ry="25.4118"/>
<text text-anchor="middle" x="661" y="-226.0792" font-family="Times,serif" font-size="14.00" fill="#000000">__init__</text>
<text text-anchor="middle" x="661" y="-212.0792" font-family="Times,serif" font-size="14.00" fill="#000000">(dqn_utils.py:86)</text>
</g>
<!-- dqn_utils__LinearSchedule&#45;&gt;dqn_utils__LinearSchedule____init__ -->
<g id="edge19" class="edge">
<title>dqn_utils__LinearSchedule&#45;&gt;dqn_utils__LinearSchedule____init__</title>
<path fill="none" stroke="#838b8b" stroke-dasharray="5,2" d="M529.7246,-299.5584C543.539,-293.2248 558.5231,-286.0005 572,-278.7351 587.1287,-270.5791 603.2027,-260.8969 617.4675,-251.9232"/>
<polygon fill="#838b8b" stroke="#838b8b" points="619.5252,-254.7626 626.0909,-246.4474 615.7728,-248.8533 619.5252,-254.7626"/>
</g>
<!-- dqn_utils__LinearSchedule__value -->
<g id="node17" class="node">
<title>dqn_utils__LinearSchedule__value</title>
<ellipse fill="#ff9999" fill-opacity="0.698039" stroke="#000000" cx="478" cy="-223.2792" rx="84.9673" ry="25.4118"/>
<text text-anchor="middle" x="478" y="-226.0792" font-family="Times,serif" font-size="14.00" fill="#000000">value</text>
<text text-anchor="middle" x="478" y="-212.0792" font-family="Times,serif" font-size="14.00" fill="#000000">(dqn_utils.py:104)</text>
</g>
<!-- dqn_utils__LinearSchedule&#45;&gt;dqn_utils__LinearSchedule__value -->
<g id="edge18" class="edge">
<title>dqn_utils__LinearSchedule&#45;&gt;dqn_utils__LinearSchedule__value</title>
<path fill="none" stroke="#838b8b" stroke-dasharray="5,2" d="M480.949,-294.7285C480.4979,-283.798 479.9629,-270.8355 479.4732,-258.972"/>
<polygon fill="#838b8b" stroke="#838b8b" points="482.9673,-258.7552 479.0578,-248.908 475.9733,-259.0439 482.9673,-258.7552"/>
</g>
<!-- dqn_utils__PiecewiseSchedule____init__ -->
<g id="node18" class="node">
<title>dqn_utils__PiecewiseSchedule____init__</title>
<ellipse fill="#ff9999" fill-opacity="0.698039" stroke="#000000" cx="1656" cy="-223.2792" rx="79.5678" ry="25.4118"/>
<text text-anchor="middle" x="1656" y="-226.0792" font-family="Times,serif" font-size="14.00" fill="#000000">__init__</text>
<text text-anchor="middle" x="1656" y="-212.0792" font-family="Times,serif" font-size="14.00" fill="#000000">(dqn_utils.py:50)</text>
</g>
<!-- dqn_utils__PiecewiseSchedule&#45;&gt;dqn_utils__PiecewiseSchedule____init__ -->
<g id="edge17" class="edge">
<title>dqn_utils__PiecewiseSchedule&#45;&gt;dqn_utils__PiecewiseSchedule____init__</title>
<path fill="none" stroke="#838b8b" stroke-dasharray="5,2" d="M1662.6354,-294.7285C1661.6203,-283.798 1660.4165,-270.8355 1659.3147,-258.972"/>
<polygon fill="#838b8b" stroke="#838b8b" points="1662.7899,-258.5415 1658.3801,-248.908 1655.8199,-259.1889 1662.7899,-258.5415"/>
</g>
<!-- dqn_utils__PiecewiseSchedule__value -->
<g id="node19" class="node">
<title>dqn_utils__PiecewiseSchedule__value</title>
<ellipse fill="#ff9999" fill-opacity="0.698039" stroke="#000000" cx="1478" cy="-223.2792" rx="79.5678" ry="25.4118"/>
<text text-anchor="middle" x="1478" y="-226.0792" font-family="Times,serif" font-size="14.00" fill="#000000">value</text>
<text text-anchor="middle" x="1478" y="-212.0792" font-family="Times,serif" font-size="14.00" fill="#000000">(dqn_utils.py:74)</text>
</g>
<!-- dqn_utils__PiecewiseSchedule&#45;&gt;dqn_utils__PiecewiseSchedule__value -->
<g id="edge16" class="edge">
<title>dqn_utils__PiecewiseSchedule&#45;&gt;dqn_utils__PiecewiseSchedule__value</title>
<path fill="none" stroke="#838b8b" stroke-dasharray="5,2" d="M1612.4215,-299.738C1597.5185,-293.4622 1581.4293,-286.2235 1567,-278.7351 1551.6111,-270.7486 1535.355,-261.0297 1521.0067,-251.9725"/>
<polygon fill="#838b8b" stroke="#838b8b" points="1522.6559,-248.8728 1512.3441,-246.44 1518.8881,-254.7723 1522.6559,-248.8728"/>
</g>
<!-- dqn_utils__ReplayBuffer____init__ -->
<g id="node20" class="node">
<title>dqn_utils__ReplayBuffer____init__</title>
<ellipse fill="#ff9999" fill-opacity="0.698039" stroke="#000000" cx="2420" cy="-223.2792" rx="84.9673" ry="25.4118"/>
<text text-anchor="middle" x="2420" y="-226.0792" font-family="Times,serif" font-size="14.00" fill="#000000">__init__</text>
<text text-anchor="middle" x="2420" y="-212.0792" font-family="Times,serif" font-size="14.00" fill="#000000">(dqn_utils.py:175)</text>
</g>
<!-- dqn_utils__ReplayBuffer&#45;&gt;dqn_utils__ReplayBuffer____init__ -->
<g id="edge23" class="edge">
<title>dqn_utils__ReplayBuffer&#45;&gt;dqn_utils__ReplayBuffer____init__</title>
<path fill="none" stroke="#838b8b" stroke-dasharray="5,2" d="M2282.8078,-299.5786C2297.2353,-293.2455 2312.8944,-286.0164 2327,-278.7351 2342.9186,-270.5178 2359.8729,-260.7337 2374.886,-251.688"/>
<polygon fill="#838b8b" stroke="#838b8b" points="2376.7516,-254.6499 2383.4786,-246.4647 2373.1155,-248.6683 2376.7516,-254.6499"/>
</g>
<!-- dqn_utils__ReplayBuffer___encode_observation -->
<g id="node21" class="node">
<title>dqn_utils__ReplayBuffer___encode_observation</title>
<ellipse fill="#ff9999" fill-opacity="0.698039" stroke="#000000" cx="1882" cy="-49.4558" rx="95.3609" ry="25.4118"/>
<text text-anchor="middle" x="1882" y="-52.2558" font-family="Times,serif" font-size="14.00" fill="#000000">_encode_observation</text>
<text text-anchor="middle" x="1882" y="-38.2558" font-family="Times,serif" font-size="14.00" fill="#000000">(dqn_utils.py:278)</text>
</g>
<!-- dqn_utils__ReplayBuffer&#45;&gt;dqn_utils__ReplayBuffer___encode_observation -->
<g id="edge20" class="edge">
<title>dqn_utils__ReplayBuffer&#45;&gt;dqn_utils__ReplayBuffer___encode_observation</title>
<path fill="none" stroke="#838b8b" stroke-dasharray="5,2" d="M2183.5693,-299.2603C2169.4266,-294.1938 2153.8224,-289.4577 2139,-286.7351 2128.7797,-284.8578 1772.2687,-286.161 1765,-278.7351 1738.6687,-251.8346 1765.5899,-141.1567 1788,-110.9117 1797.901,-97.5491 1811.6397,-86.2686 1825.5595,-77.166"/>
<polygon fill="#838b8b" stroke="#838b8b" points="1827.5746,-80.0345 1834.2173,-71.7807 1823.8773,-74.0906 1827.5746,-80.0345"/>
</g>
<!-- dqn_utils__ReplayBuffer___encode_sample -->
<g id="node22" class="node">
<title>dqn_utils__ReplayBuffer___encode_sample</title>
<ellipse fill="#ff9999" fill-opacity="0.698039" stroke="#000000" cx="1882" cy="-136.3675" rx="84.9673" ry="25.4118"/>
<text text-anchor="middle" x="1882" y="-139.1675" font-family="Times,serif" font-size="14.00" fill="#000000">_encode_sample</text>
<text text-anchor="middle" x="1882" y="-125.1675" font-family="Times,serif" font-size="14.00" fill="#000000">(dqn_utils.py:218)</text>
</g>
<!-- dqn_utils__ReplayBuffer&#45;&gt;dqn_utils__ReplayBuffer___encode_sample -->
<g id="edge27" class="edge">
<title>dqn_utils__ReplayBuffer&#45;&gt;dqn_utils__ReplayBuffer___encode_sample</title>
<path fill="none" stroke="#838b8b" stroke-dasharray="5,2" d="M2282.4698,-299.4671C2296.6129,-294.4026 2312.2075,-289.6159 2327,-286.7351 2337.2066,-284.7473 2506.8061,-286.2433 2514,-278.7351 2527.6693,-264.4685 2527.5634,-204.1907 2514,-189.8234 2476.8691,-150.4917 2081.7317,-168.0345 2028,-161.8234 2006.8176,-159.3748 1984.049,-155.8438 1962.9411,-152.1877"/>
<polygon fill="#838b8b" stroke="#838b8b" points="1963.506,-148.7334 1953.0503,-150.4451 1962.2913,-155.6273 1963.506,-148.7334"/>
</g>
<!-- dqn_utils__ReplayBuffer__can_sample -->
<g id="node23" class="node">
<title>dqn_utils__ReplayBuffer__can_sample</title>
<ellipse fill="#ff9999" fill-opacity="0.698039" stroke="#000000" cx="2122" cy="-136.3675" rx="84.9673" ry="25.4118"/>
<text text-anchor="middle" x="2122" y="-139.1675" font-family="Times,serif" font-size="14.00" fill="#000000">can_sample</text>
<text text-anchor="middle" x="2122" y="-125.1675" font-family="Times,serif" font-size="14.00" fill="#000000">(dqn_utils.py:214)</text>
</g>
<!-- dqn_utils__ReplayBuffer&#45;&gt;dqn_utils__ReplayBuffer__can_sample -->
<g id="edge22" class="edge">
<title>dqn_utils__ReplayBuffer&#45;&gt;dqn_utils__ReplayBuffer__can_sample</title>
<path fill="none" stroke="#838b8b" stroke-dasharray="5,2" d="M2282.4638,-299.4364C2296.6069,-294.3717 2312.203,-289.5925 2327,-286.7351 2338.0273,-284.6056 2521.2172,-286.8322 2529,-278.7351 2556.3838,-250.2453 2555.551,-219.0908 2529,-189.8234 2507.4721,-166.093 2273.6653,-166.711 2242,-161.8234 2227.977,-159.6589 2213.1252,-156.8969 2198.8259,-153.9949"/>
<polygon fill="#838b8b" stroke="#838b8b" points="2199.5332,-150.5672 2189.0315,-151.9692 2198.1153,-157.4221 2199.5332,-150.5672"/>
</g>
<!-- dqn_utils__ReplayBuffer__encode_recent_observation -->
<g id="node24" class="node">
<title>dqn_utils__ReplayBuffer__encode_recent_observation</title>
<ellipse fill="#ff9999" fill-opacity="0.698039" stroke="#000000" cx="2371" cy="-136.3675" rx="119.7176" ry="25.4118"/>
<text text-anchor="middle" x="2371" y="-139.1675" font-family="Times,serif" font-size="14.00" fill="#000000">encode_recent_observation</text>
<text text-anchor="middle" x="2371" y="-125.1675" font-family="Times,serif" font-size="14.00" fill="#000000">(dqn_utils.py:265)</text>
</g>
<!-- dqn_utils__ReplayBuffer&#45;&gt;dqn_utils__ReplayBuffer__encode_recent_observation -->
<g id="edge26" class="edge">
<title>dqn_utils__ReplayBuffer&#45;&gt;dqn_utils__ReplayBuffer__encode_recent_observation</title>
<path fill="none" stroke="#838b8b" stroke-dasharray="5,2" d="M2282.4588,-299.41C2296.6018,-294.345 2312.1991,-289.5722 2327,-286.7351 2338.848,-284.4639 2535.6283,-287.4211 2544,-278.7351 2571.4227,-250.2828 2567.4578,-221.6238 2544,-189.8234 2534.1065,-176.4114 2502.7296,-164.939 2469.3631,-156.1005"/>
<polygon fill="#838b8b" stroke="#838b8b" points="2469.9982,-152.6503 2459.4426,-153.5607 2468.2621,-159.4316 2469.9982,-152.6503"/>
</g>
<!-- dqn_utils__ReplayBuffer__sample -->
<g id="node25" class="node">
<title>dqn_utils__ReplayBuffer__sample</title>
<ellipse fill="#ff9999" fill-opacity="0.698039" stroke="#000000" cx="1859" cy="-223.2792" rx="84.9673" ry="25.4118"/>
<text text-anchor="middle" x="1859" y="-226.0792" font-family="Times,serif" font-size="14.00" fill="#000000">sample</text>
<text text-anchor="middle" x="1859" y="-212.0792" font-family="Times,serif" font-size="14.00" fill="#000000">(dqn_utils.py:228)</text>
</g>
<!-- dqn_utils__ReplayBuffer&#45;&gt;dqn_utils__ReplayBuffer__sample -->
<g id="edge21" class="edge">
<title>dqn_utils__ReplayBuffer&#45;&gt;dqn_utils__ReplayBuffer__sample</title>
<path fill="none" stroke="#838b8b" stroke-dasharray="5,2" d="M2183.5302,-299.4671C2169.3871,-294.4026 2153.7925,-289.6159 2139,-286.7351 2098.1735,-278.784 1991.8541,-290.6378 1952,-278.7351 1933.3066,-273.1522 1914.4855,-262.9819 1898.7125,-252.8612"/>
<polygon fill="#838b8b" stroke="#838b8b" points="1900.5521,-249.8816 1890.2834,-247.2731 1896.6842,-255.7159 1900.5521,-249.8816"/>
</g>
<!-- dqn_utils__ReplayBuffer__store_effect -->
<g id="node26" class="node">
<title>dqn_utils__ReplayBuffer__store_effect</title>
<ellipse fill="#ff9999" fill-opacity="0.698039" stroke="#000000" cx="2233" cy="-223.2792" rx="84.9673" ry="25.4118"/>
<text text-anchor="middle" x="2233" y="-226.0792" font-family="Times,serif" font-size="14.00" fill="#000000">store_effect</text>
<text text-anchor="middle" x="2233" y="-212.0792" font-family="Times,serif" font-size="14.00" fill="#000000">(dqn_utils.py:332)</text>
</g>
<!-- dqn_utils__ReplayBuffer&#45;&gt;dqn_utils__ReplayBuffer__store_effect -->
<g id="edge24" class="edge">
<title>dqn_utils__ReplayBuffer&#45;&gt;dqn_utils__ReplayBuffer__store_effect</title>
<path fill="none" stroke="#838b8b" stroke-dasharray="5,2" d="M2233,-294.7285C2233,-283.798 2233,-270.8355 2233,-258.972"/>
<polygon fill="#838b8b" stroke="#838b8b" points="2236.5001,-258.908 2233,-248.908 2229.5001,-258.9081 2236.5001,-258.908"/>
</g>
<!-- dqn_utils__ReplayBuffer__store_frame -->
<g id="node27" class="node">
<title>dqn_utils__ReplayBuffer__store_frame</title>
<ellipse fill="#ff9999" fill-opacity="0.698039" stroke="#000000" cx="2046" cy="-223.2792" rx="84.9673" ry="25.4118"/>
<text text-anchor="middle" x="2046" y="-226.0792" font-family="Times,serif" font-size="14.00" fill="#000000">store_frame</text>
<text text-anchor="middle" x="2046" y="-212.0792" font-family="Times,serif" font-size="14.00" fill="#000000">(dqn_utils.py:304)</text>
</g>
<!-- dqn_utils__ReplayBuffer&#45;&gt;dqn_utils__ReplayBuffer__store_frame -->
<g id="edge25" class="edge">
<title>dqn_utils__ReplayBuffer&#45;&gt;dqn_utils__ReplayBuffer__store_frame</title>
<path fill="none" stroke="#838b8b" stroke-dasharray="5,2" d="M2183.1922,-299.5786C2168.7647,-293.2455 2153.1056,-286.0164 2139,-278.7351 2123.0814,-270.5178 2106.1271,-260.7337 2091.114,-251.688"/>
<polygon fill="#838b8b" stroke="#838b8b" points="2092.8845,-248.6683 2082.5214,-246.4647 2089.2484,-254.6499 2092.8845,-248.6683"/>
</g>
<!-- dqn_utils__Schedule__value -->
<g id="node28" class="node">
<title>dqn_utils__Schedule__value</title>
<ellipse fill="#ff9999" fill-opacity="0.698039" stroke="#000000" cx="2663" cy="-223.2792" rx="79.5678" ry="25.4118"/>
<text text-anchor="middle" x="2663" y="-226.0792" font-family="Times,serif" font-size="14.00" fill="#000000">value</text>
<text text-anchor="middle" x="2663" y="-212.0792" font-family="Times,serif" font-size="14.00" fill="#000000">(dqn_utils.py:28)</text>
</g>
<!-- dqn_utils__Schedule&#45;&gt;dqn_utils__Schedule__value -->
<g id="edge13" class="edge">
<title>dqn_utils__Schedule&#45;&gt;dqn_utils__Schedule__value</title>
<path fill="none" stroke="#838b8b" stroke-dasharray="5,2" d="M2482.8207,-306.2168C2510.1001,-299.4581 2541.6104,-290.2765 2569,-278.7351 2586.3695,-271.4159 2604.4336,-261.4114 2620.0298,-251.9136"/>
<polygon fill="#838b8b" stroke="#838b8b" points="2622.254,-254.6524 2628.9035,-246.4041 2618.5616,-248.7054 2622.254,-254.6524"/>
</g>
<!-- dqn_utils__PiecewiseSchedule____init__&#45;&gt;dqn_utils__linear_interpolation -->
<g id="edge28" class="edge">
<title>dqn_utils__PiecewiseSchedule____init__&#45;&gt;dqn_utils__linear_interpolation</title>
<path fill="none" stroke="#000000" d="M1691.3605,-246.1024C1708.6537,-256.7517 1730.0064,-269.1582 1750,-278.7351 1763.6642,-285.2802 1778.6539,-291.5155 1793.0512,-297.0703"/>
<polygon fill="#000000" stroke="#000000" points="1791.8156,-300.3449 1802.4069,-300.6187 1794.2981,-293.7998 1791.8156,-300.3449"/>
</g>
<!-- dqn_utils__ReplayBuffer___encode_sample&#45;&gt;dqn_utils__ReplayBuffer___encode_observation -->
<g id="edge29" class="edge">
<title>dqn_utils__ReplayBuffer___encode_sample&#45;&gt;dqn_utils__ReplayBuffer___encode_observation</title>
<path fill="none" stroke="#000000" d="M1882,-110.7612C1882,-102.7873 1882,-93.8428 1882,-85.303"/>
<polygon fill="#000000" stroke="#000000" points="1885.5001,-85.1794 1882,-75.1795 1878.5001,-85.1795 1885.5001,-85.1794"/>
</g>
<!-- dqn_utils__ReplayBuffer__encode_recent_observation&#45;&gt;dqn_utils__ReplayBuffer___encode_observation -->
<g id="edge33" class="edge">
<title>dqn_utils__ReplayBuffer__encode_recent_observation&#45;&gt;dqn_utils__ReplayBuffer___encode_observation</title>
<path fill="none" stroke="#000000" d="M2279.0228,-120.0201C2190.8458,-104.3481 2058.6023,-80.844 1971.323,-65.3315"/>
<polygon fill="#000000" stroke="#000000" points="1971.8956,-61.8785 1961.4374,-63.5745 1970.6706,-68.7705 1971.8956,-61.8785"/>
</g>
<!-- dqn_utils__ReplayBuffer__sample&#45;&gt;dqn_utils__sample_n_unique -->
<g id="edge31" class="edge">
<title>dqn_utils__ReplayBuffer__sample&#45;&gt;dqn_utils__sample_n_unique</title>
<path fill="none" stroke="#000000" d="M1895.4696,-246.5657C1912.37,-256.9543 1932.9012,-269.0145 1952,-278.7351 1963.8356,-284.7589 1976.7491,-290.6964 1989.1802,-296.1132"/>
<polygon fill="#000000" stroke="#000000" points="1987.997,-299.4142 1998.5665,-300.1467 1990.7608,-292.9828 1987.997,-299.4142"/>
</g>
<!-- dqn_utils__ReplayBuffer__sample&#45;&gt;dqn_utils__ReplayBuffer___encode_sample -->
<g id="edge32" class="edge">
<title>dqn_utils__ReplayBuffer__sample&#45;&gt;dqn_utils__ReplayBuffer___encode_sample</title>
<path fill="none" stroke="#000000" d="M1865.7764,-197.6729C1867.9288,-189.5394 1870.3484,-180.3961 1872.6491,-171.7024"/>
<polygon fill="#000000" stroke="#000000" points="1876.0972,-172.3535 1875.2721,-161.7908 1869.3302,-170.5626 1876.0972,-172.3535"/>
</g>
<!-- dqn_utils__ReplayBuffer__sample&#45;&gt;dqn_utils__ReplayBuffer__can_sample -->
<g id="edge30" class="edge">
<title>dqn_utils__ReplayBuffer__sample&#45;&gt;dqn_utils__ReplayBuffer__can_sample</title>
<path fill="none" stroke="#000000" d="M1912.9648,-203.4465C1925.7287,-198.872 1939.3167,-194.0969 1952,-189.8234 1984.8053,-178.77 2021.4095,-167.1671 2052.225,-157.6066"/>
<polygon fill="#000000" stroke="#000000" points="2053.4959,-160.8771 2062.0145,-154.5775 2051.4267,-154.1899 2053.4959,-160.8771"/>
</g>
</g>
</svg>
