<?xml version="1.0" encoding="UTF-8" standalone="no"?>
<!DOCTYPE svg PUBLIC "-//W3C//DTD SVG 1.1//EN"
 "http://www.w3.org/Graphics/SVG/1.1/DTD/svg11.dtd">
<!-- Generated by graphviz version 2.40.1 (20161225.0304)
 -->
<!-- Title: G Pages: 1 -->
<svg width="948pt" height="349pt"
 viewBox="0.00 0.00 948.39 348.74" xmlns="http://www.w3.org/2000/svg" xmlns:xlink="http://www.w3.org/1999/xlink">
<g id="graph0" class="graph" transform="scale(1 1) rotate(0) translate(4 344.7351)">
<title>G</title>
<polygon fill="#ffffff" stroke="transparent" points="-4,4 -4,-344.7351 944.3934,-344.7351 944.3934,4 -4,4"/>
<g id="clust1" class="cluster">
<title>cluster_G</title>
<path fill="#808080" fill-opacity="0.094118" stroke="#000000" d="M21.3934,-8C21.3934,-8 920.3934,-8 920.3934,-8 926.3934,-8 932.3934,-14 932.3934,-20 932.3934,-20 932.3934,-320.7351 932.3934,-320.7351 932.3934,-326.7351 926.3934,-332.7351 920.3934,-332.7351 920.3934,-332.7351 21.3934,-332.7351 21.3934,-332.7351 15.3934,-332.7351 9.3934,-326.7351 9.3934,-320.7351 9.3934,-320.7351 9.3934,-20 9.3934,-20 9.3934,-14 15.3934,-8 21.3934,-8"/>
</g>
<g id="clust2" class="cluster">
<title>cluster_run_dqn_ram</title>
<path fill="#808080" fill-opacity="0.094118" stroke="#000000" d="M81.3934,-16C81.3934,-16 696.3934,-16 696.3934,-16 702.3934,-16 708.3934,-22 708.3934,-28 708.3934,-28 708.3934,-268.7351 708.3934,-268.7351 708.3934,-274.7351 702.3934,-280.7351 696.3934,-280.7351 696.3934,-280.7351 81.3934,-280.7351 81.3934,-280.7351 75.3934,-280.7351 69.3934,-274.7351 69.3934,-268.7351 69.3934,-268.7351 69.3934,-28 69.3934,-28 69.3934,-22 75.3934,-16 81.3934,-16"/>
<text text-anchor="middle" x="388.8934" y="-265.5351" font-family="Times,serif" font-size="14.00" fill="#000000">run_dqn_ram</text>
</g>
<g id="clust3" class="cluster">
<title>cluster_run_dqn_ram__atari_learn</title>
<path fill="#808080" fill-opacity="0.094118" stroke="#000000" d="M728.3934,-16C728.3934,-16 912.3934,-16 912.3934,-16 918.3934,-16 924.3934,-22 924.3934,-28 924.3934,-28 924.3934,-92.9117 924.3934,-92.9117 924.3934,-98.9117 918.3934,-104.9117 912.3934,-104.9117 912.3934,-104.9117 728.3934,-104.9117 728.3934,-104.9117 722.3934,-104.9117 716.3934,-98.9117 716.3934,-92.9117 716.3934,-92.9117 716.3934,-28 716.3934,-28 716.3934,-22 722.3934,-16 728.3934,-16"/>
<text text-anchor="middle" x="820.3934" y="-89.7117" font-family="Times,serif" font-size="14.00" fill="#000000">run_dqn_ram.atari_learn</text>
</g>
<!-- run_dqn_ram -->
<g id="node1" class="node">
<title>run_dqn_ram</title>
<ellipse fill="#ffffff" fill-opacity="0.698039" stroke="#000000" cx="178.3934" cy="-306.7351" rx="57.5065" ry="18"/>
<text text-anchor="middle" x="178.3934" y="-302.5351" font-family="Times,serif" font-size="14.00" fill="#000000">run_dqn_ram</text>
</g>
<!-- run_dqn_ram__atari_learn -->
<g id="node2" class="node">
<title>run_dqn_ram__atari_learn</title>
<ellipse fill="#fecccc" fill-opacity="0.698039" stroke="#000000" cx="604.3934" cy="-138.3675" rx="96.0339" ry="25.4118"/>
<text text-anchor="middle" x="604.3934" y="-141.1675" font-family="Times,serif" font-size="14.00" fill="#000000">atari_learn</text>
<text text-anchor="middle" x="604.3934" y="-127.1675" font-family="Times,serif" font-size="14.00" fill="#000000">(run_dqn_ram.py:27)</text>
</g>
<!-- run_dqn_ram&#45;&gt;run_dqn_ram__atari_learn -->
<g id="edge7" class="edge">
<title>run_dqn_ram&#45;&gt;run_dqn_ram__atari_learn</title>
<path fill="none" stroke="#838b8b" stroke-dasharray="5,2" d="M234.6557,-302.1788C265.832,-298.5243 304.9381,-292.0546 338.3934,-280.7351 421.4109,-252.6463 509.5403,-200.4574 560.6355,-167.671"/>
<polygon fill="#838b8b" stroke="#838b8b" points="562.6254,-170.5523 569.1233,-162.184 558.8251,-164.6737 562.6254,-170.5523"/>
</g>
<!-- run_dqn_ram__atari_model -->
<g id="node3" class="node">
<title>run_dqn_ram__atari_model</title>
<ellipse fill="#fecccc" fill-opacity="0.698039" stroke="#000000" cx="602.3934" cy="-49.4558" rx="96.0339" ry="25.4118"/>
<text text-anchor="middle" x="602.3934" y="-52.2558" font-family="Times,serif" font-size="14.00" fill="#000000">atari_model</text>
<text text-anchor="middle" x="602.3934" y="-38.2558" font-family="Times,serif" font-size="14.00" fill="#000000">(run_dqn_ram.py:15)</text>
</g>
<!-- run_dqn_ram&#45;&gt;run_dqn_ram__atari_model -->
<g id="edge5" class="edge">
<title>run_dqn_ram&#45;&gt;run_dqn_ram__atari_model</title>
<path fill="none" stroke="#838b8b" stroke-dasharray="5,2" d="M124.128,-300.2847C100.1205,-296.2061 75.6685,-289.9301 68.3934,-280.7351 45.2535,-251.488 42.2713,-139.529 68.3934,-112.9117 76.6834,-104.4646 482.916,-107.8005 494.3934,-104.9117 516.3503,-99.3852 538.8967,-88.7322 557.6717,-78.228"/>
<polygon fill="#838b8b" stroke="#838b8b" points="559.6468,-81.1296 566.5665,-73.1065 556.1539,-75.0633 559.6468,-81.1296"/>
</g>
<!-- run_dqn_ram__get_available_gpus -->
<g id="node4" class="node">
<title>run_dqn_ram__get_available_gpus</title>
<ellipse fill="#fecccc" fill-opacity="0.698039" stroke="#000000" cx="389.3934" cy="-49.4558" rx="96.0339" ry="25.4118"/>
<text text-anchor="middle" x="389.3934" y="-52.2558" font-family="Times,serif" font-size="14.00" fill="#000000">get_available_gpus</text>
<text text-anchor="middle" x="389.3934" y="-38.2558" font-family="Times,serif" font-size="14.00" fill="#000000">(run_dqn_ram.py:77)</text>
</g>
<!-- run_dqn_ram&#45;&gt;run_dqn_ram__get_available_gpus -->
<g id="edge2" class="edge">
<title>run_dqn_ram&#45;&gt;run_dqn_ram__get_available_gpus</title>
<path fill="none" stroke="#838b8b" stroke-dasharray="5,2" d="M122.6072,-301.989C93.5951,-298.2403 62.3451,-291.7403 53.3934,-280.7351 29.8603,-251.8034 27.4911,-139.743 53.3934,-112.9117 62.1578,-103.833 268.176,-108.0695 280.3934,-104.9117 302.2989,-99.2498 324.8543,-88.6926 343.7229,-78.2966"/>
<polygon fill="#838b8b" stroke="#838b8b" points="345.6946,-81.2023 352.6706,-73.2282 342.2445,-75.1116 345.6946,-81.2023"/>
</g>
<!-- run_dqn_ram__get_env -->
<g id="node5" class="node">
<title>run_dqn_ram__get_env</title>
<ellipse fill="#fecccc" fill-opacity="0.698039" stroke="#000000" cx="178.3934" cy="-138.3675" rx="101.4333" ry="25.4118"/>
<text text-anchor="middle" x="178.3934" y="-141.1675" font-family="Times,serif" font-size="14.00" fill="#000000">get_env</text>
<text text-anchor="middle" x="178.3934" y="-127.1675" font-family="Times,serif" font-size="14.00" fill="#000000">(run_dqn_ram.py:101)</text>
</g>
<!-- run_dqn_ram&#45;&gt;run_dqn_ram__get_env -->
<g id="edge6" class="edge">
<title>run_dqn_ram&#45;&gt;run_dqn_ram__get_env</title>
<path fill="none" stroke="#838b8b" stroke-dasharray="5,2" d="M232.6589,-300.2847C256.6664,-296.2061 281.1184,-289.9301 288.3934,-280.7351 310.7061,-252.5337 306.5931,-230.8387 288.3934,-199.8234 279.3237,-184.367 264.7943,-172.5096 249.2281,-163.5306"/>
<polygon fill="#838b8b" stroke="#838b8b" points="250.4438,-160.2111 239.9767,-158.571 247.1364,-166.3805 250.4438,-160.2111"/>
</g>
<!-- run_dqn_ram__get_session -->
<g id="node6" class="node">
<title>run_dqn_ram__get_session</title>
<ellipse fill="#fecccc" fill-opacity="0.698039" stroke="#000000" cx="393.3934" cy="-138.3675" rx="96.0339" ry="25.4118"/>
<text text-anchor="middle" x="393.3934" y="-141.1675" font-family="Times,serif" font-size="14.00" fill="#000000">get_session</text>
<text text-anchor="middle" x="393.3934" y="-127.1675" font-family="Times,serif" font-size="14.00" fill="#000000">(run_dqn_ram.py:92)</text>
</g>
<!-- run_dqn_ram&#45;&gt;run_dqn_ram__get_session -->
<g id="edge4" class="edge">
<title>run_dqn_ram&#45;&gt;run_dqn_ram__get_session</title>
<path fill="none" stroke="#838b8b" stroke-dasharray="5,2" d="M231.4687,-299.5068C258.938,-294.9715 289.0519,-288.5119 300.3934,-280.7351 338.9536,-254.2946 365.3959,-206.0844 379.9563,-173.1575"/>
<polygon fill="#838b8b" stroke="#838b8b" points="383.206,-174.4597 383.9211,-163.889 376.7702,-171.7065 383.206,-174.4597"/>
</g>
<!-- run_dqn_ram__main -->
<g id="node7" class="node">
<title>run_dqn_ram__main</title>
<ellipse fill="#fecccc" fill-opacity="0.698039" stroke="#000000" cx="178.3934" cy="-225.2792" rx="100.7079" ry="25.4118"/>
<text text-anchor="middle" x="178.3934" y="-228.0792" font-family="Times,serif" font-size="14.00" fill="#000000">main</text>
<text text-anchor="middle" x="178.3934" y="-214.0792" font-family="Times,serif" font-size="14.00" fill="#000000">(run_dqn_ram.py:113)</text>
</g>
<!-- run_dqn_ram&#45;&gt;run_dqn_ram__main -->
<g id="edge3" class="edge">
<title>run_dqn_ram&#45;&gt;run_dqn_ram__main</title>
<path fill="none" stroke="#838b8b" stroke-dasharray="5,2" d="M172.6734,-288.6574C171.8389,-280.4653 171.5115,-270.4807 171.6912,-260.8819"/>
<polygon fill="#838b8b" stroke="#838b8b" points="175.195,-260.8489 172.0851,-250.7208 168.2002,-260.5777 175.195,-260.8489"/>
</g>
<!-- run_dqn_ram&#45;&gt;run_dqn_ram__main -->
<g id="edge9" class="edge">
<title>run_dqn_ram&#45;&gt;run_dqn_ram__main</title>
<path fill="none" stroke="#000000" d="M184.1135,-288.6574C184.9479,-280.4653 185.2753,-270.4807 185.0957,-260.8819"/>
<polygon fill="#000000" stroke="#000000" points="188.5866,-260.5777 184.7018,-250.7208 181.5919,-260.8489 188.5866,-260.5777"/>
</g>
<!-- run_dqn_ram__set_global_seeds -->
<g id="node8" class="node">
<title>run_dqn_ram__set_global_seeds</title>
<ellipse fill="#fecccc" fill-opacity="0.698039" stroke="#000000" cx="175.3934" cy="-49.4558" rx="96.0339" ry="25.4118"/>
<text text-anchor="middle" x="175.3934" y="-52.2558" font-family="Times,serif" font-size="14.00" fill="#000000">set_global_seeds</text>
<text text-anchor="middle" x="175.3934" y="-38.2558" font-family="Times,serif" font-size="14.00" fill="#000000">(run_dqn_ram.py:82)</text>
</g>
<!-- run_dqn_ram&#45;&gt;run_dqn_ram__set_global_seeds -->
<g id="edge1" class="edge">
<title>run_dqn_ram&#45;&gt;run_dqn_ram__set_global_seeds</title>
<path fill="none" stroke="#838b8b" stroke-dasharray="5,2" d="M121.2024,-303.8483C85.6692,-300.7204 44.676,-294.2207 33.3934,-280.7351 -14.4682,-223.5279 -7.1873,-175.4944 33.3934,-112.9117 46.6337,-92.4928 68.1509,-78.5862 90.4763,-69.1373"/>
<polygon fill="#838b8b" stroke="#838b8b" points="92.0523,-72.2782 100.072,-65.3547 89.4851,-65.7659 92.0523,-72.2782"/>
</g>
<!-- run_dqn_ram__atari_learn&#45;&gt;run_dqn_ram__atari_model -->
<g id="edge10" class="edge">
<title>run_dqn_ram__atari_learn&#45;&gt;run_dqn_ram__atari_model</title>
<path fill="none" stroke="#000000" d="M603.815,-112.6506C603.6222,-104.08 603.4038,-94.3721 603.1971,-85.1823"/>
<polygon fill="#000000" stroke="#000000" points="606.6947,-85.0337 602.9706,-75.115 599.6965,-85.1912 606.6947,-85.0337"/>
</g>
<!-- run_dqn_ram__atari_learn__stopping_criterion -->
<g id="node9" class="node">
<title>run_dqn_ram__atari_learn__stopping_criterion</title>
<ellipse fill="#ff9999" fill-opacity="0.698039" stroke="#000000" cx="820.3934" cy="-49.4558" rx="96.0339" ry="25.4118"/>
<text text-anchor="middle" x="820.3934" y="-52.2558" font-family="Times,serif" font-size="14.00" fill="#000000">stopping_criterion</text>
<text text-anchor="middle" x="820.3934" y="-38.2558" font-family="Times,serif" font-size="14.00" fill="#000000">(run_dqn_ram.py:46)</text>
</g>
<!-- run_dqn_ram__atari_learn&#45;&gt;run_dqn_ram__atari_learn__stopping_criterion -->
<g id="edge8" class="edge">
<title>run_dqn_ram__atari_learn&#45;&gt;run_dqn_ram__atari_learn__stopping_criterion</title>
<path fill="none" stroke="#838b8b" stroke-dasharray="5,2" d="M665.6069,-118.6175C678.2128,-114.4697 691.3074,-109.8428 703.3934,-104.9117 723.5188,-96.7004 744.9555,-86.1057 763.9694,-76.3802"/>
<polygon fill="#838b8b" stroke="#838b8b" points="765.7993,-79.3749 773.0926,-71.6899 762.5988,-73.1494 765.7993,-79.3749"/>
</g>
<!-- run_dqn_ram__atari_learn&#45;&gt;run_dqn_ram__atari_learn__stopping_criterion -->
<g id="edge11" class="edge">
<title>run_dqn_ram__atari_learn&#45;&gt;run_dqn_ram__atari_learn__stopping_criterion</title>
<path fill="none" stroke="#000000" d="M675.4532,-121.0829C690.8546,-116.3357 706.8538,-110.8439 721.3934,-104.9117 740.1649,-97.2528 760.0772,-87.5204 777.1455,-78.3538"/>
<polygon fill="#000000" stroke="#000000" points="779.2195,-81.2086 786.31,-73.3362 775.8578,-75.0686 779.2195,-81.2086"/>
</g>
<!-- run_dqn_ram__get_env&#45;&gt;run_dqn_ram__set_global_seeds -->
<g id="edge13" class="edge">
<title>run_dqn_ram__get_env&#45;&gt;run_dqn_ram__set_global_seeds</title>
<path fill="none" stroke="#000000" d="M177.5257,-112.6506C177.2365,-104.08 176.909,-94.3721 176.5989,-85.1823"/>
<polygon fill="#000000" stroke="#000000" points="180.0945,-84.9912 176.2592,-75.115 173.0985,-85.2274 180.0945,-84.9912"/>
</g>
<!-- run_dqn_ram__get_session&#45;&gt;run_dqn_ram__get_available_gpus -->
<g id="edge12" class="edge">
<title>run_dqn_ram__get_session&#45;&gt;run_dqn_ram__get_available_gpus</title>
<path fill="none" stroke="#000000" d="M392.2365,-112.6506C391.8509,-104.08 391.4142,-94.3721 391.0007,-85.1823"/>
<polygon fill="#000000" stroke="#000000" points="394.4938,-84.9476 390.5478,-75.115 387.5009,-85.2622 394.4938,-84.9476"/>
</g>
<!-- run_dqn_ram__main&#45;&gt;run_dqn_ram__atari_learn -->
<g id="edge16" class="edge">
<title>run_dqn_ram__main&#45;&gt;run_dqn_ram__atari_learn</title>
<path fill="none" stroke="#000000" d="M249.6878,-207.2648C260.9361,-204.6338 272.4595,-202.0611 283.3934,-199.8234 378.3117,-180.3971 403.4542,-183.1471 498.3934,-163.8234 506.8825,-162.0955 515.7246,-160.1718 524.5222,-158.1773"/>
<polygon fill="#000000" stroke="#000000" points="525.4538,-161.5545 534.4149,-155.9022 523.8848,-154.7326 525.4538,-161.5545"/>
</g>
<!-- run_dqn_ram__main&#45;&gt;run_dqn_ram__get_env -->
<g id="edge15" class="edge">
<title>run_dqn_ram__main&#45;&gt;run_dqn_ram__get_env</title>
<path fill="none" stroke="#000000" d="M178.3934,-199.6729C178.3934,-191.699 178.3934,-182.7545 178.3934,-174.2147"/>
<polygon fill="#000000" stroke="#000000" points="181.8935,-174.0911 178.3934,-164.0911 174.8935,-174.0912 181.8935,-174.0911"/>
</g>
<!-- run_dqn_ram__main&#45;&gt;run_dqn_ram__get_session -->
<g id="edge14" class="edge">
<title>run_dqn_ram__main&#45;&gt;run_dqn_ram__get_session</title>
<path fill="none" stroke="#000000" d="M231.8158,-203.6838C261.9082,-191.5192 299.6454,-176.2643 331.0805,-163.557"/>
<polygon fill="#000000" stroke="#000000" points="332.659,-166.6941 340.6184,-159.7013 330.0355,-160.2043 332.659,-166.6941"/>
</g>
</g>
</svg>
